<?xml version="1.0" encoding="utf-8"?>
<svg viewBox="0 0 500.761 303.996" xmlns="http://www.w3.org/2000/svg" xmlns:xlink="http://www.w3.org/1999/xlink" xmlns:bx="https://boxy-svg.com">
  <defs>
    <path id="path-0" d="M 134.956 220.79 C 159.759 212.693 176.516 202.084 195.458 190.245 C 219.371 177.008 235.212 163.925 254.199 155.295 C 269.337 145.202 280.6 136.9 292.38 132.973 C 297.179 130.574 304.147 127.98 308.533 127.98 C 318.5 125.896 325.86 120.009 334.673 116.232 C 348.924 109.931 362.592 109.074 374.323 101.254 C 381.489 94.215 385.996 88.59 389.889 82.75 C 396.204 76.362 401.643 66.978 403.105 64.541 C 411.607 53.326 417.258 39.753 419.259 28.416 C 401.749 13.029 359.243 22.604 350.533 22.542 C 334.089 22.424 317.636 22.542 301.191 22.542 C 290.559 22.542 278.944 21.95 268.59 24.891 C 242.507 32.301 240.398 35.463 222.185 44.569 C 205.06 57.048 196.511 63.857 190.172 72.177 C 183.161 81.378 169.353 95.065 171.962 109.184 C 173.382 116.869 175.121 124.495 176.955 132.092 C 177.411 133.982 179.878 137.493 180.48 138.847 C 228.399 183.459 285.247 186.105 337.316 203.462 L 343.484 204.93 C 360.701 208.981 378.139 210.217 395.763 210.217" style="fill: none;"/>
    <path id="path-1" d="M 150.522 231.07 C 155.512 227.548 160.798 226.431 164.326 224.314 C 166.785 221.855 171.123 218.577 174.018 217.853 C 179.789 213.819 186.216 212.488 191.347 209.923 C 202.678 204.455 215.962 200.579 223.654 192.888 C 237.734 185.033 248.853 175.149 260.954 169.099 C 280.077 156.476 301.234 148.623 319.694 140.316 C 329.054 134.136 329.918 132.615 337.316 127.393 C 341.521 124.425 347.545 123.182 351.708 120.638 C 359.637 114.561 363.851 114.212 366.099 113.002 C 372.276 109.676 380.171 103.107 386.658 101.254 C 398.373 94.06 405.631 89.344 412.504 83.044" style="fill: none;"/>
    <path id="path-2" d="M 165.794 281.293 C 170.173 276.847 175.923 271.089 178.424 269.838 C 186.855 264.218 194.002 261.315 201.039 257.796 C 221.363 250.521 236.462 241.62 251.849 234.888 C 279.264 219.478 304.159 205.887 321.456 186.427 C 349.176 164.019 377.614 150.108 404.574 135.617 C 412.448 131.384 419.063 126.355 427.482 122.987 L 440.993 115.351 C 452.167 105.193 450.488 106.736 455.972 101.254" style="fill: none;"/>
    <path id="path-3" d="M 274.17 272.188 C 306.212 255.433 331.907 234.392 359.931 217.266 C 387.897 198.944 406.9 189.166 423.664 178.497 C 425.835 174.743 431.198 171.275 434.825 169.099 C 439.754 165.314 442.991 163.282 445.986 160.288 C 448.091 157.277 450.774 156.728 453.622 155.588 C 457.187 152.918 462.145 150.587 463.901 147.952 L 464.195 147.658 C 464.818 147.451 465.301 146.777 465.957 146.777" style="fill: none;"/>
    <path id="path-4" d="M 299.429 295.097 C 360.428 262.667 415.968 230.675 468.307 193.77 L 477.999 188.483 C 488.14 180.756 497.977 171.005 509.425 165.281" style="fill: none;"/>
    <path id="path-5" d="M 197.514 292.16 C 221.487 286.224 235.337 274.589 250.968 266.314 C 278.263 251.863 306.824 239.151 334.673 225.783 L 350.239 216.678 C 376.743 201.405 402.31 185.032 428.657 169.392 C 434.615 165.856 466.685 149.817 469.188 148.54 C 499.685 132.973 529.232 116.676 559.942 101.547" style="fill: none;"/>
    <path id="path-6" d="M 207.206 248.398 C 213.532 242.66 220.58 236.497 225.71 233.419 C 234.451 224.971 245.644 218.475 255.08 214.035 C 282.707 198.408 308.526 185.383 334.085 171.155 C 365.527 146.883 406.27 138.813 431.007 111.827 L 433.65 110.358 C 435.51 108.498 437.37 106.638 439.231 104.778" style="fill: none;"/>
    <path id="path-7" d="M 250.087 236.65 C 275.79 219.221 302.067 208.696 327.33 197.588 C 361.456 182.582 393.831 165.783 424.545 144.721 L 432.475 139.728 C 467.578 121.796 454.396 129.315 488.866 103.897" style="fill: none;"/>
    <path id="path-8" d="M 184.591 272.775 C 201.409 261.955 217.82 253.081 231.877 247.223 C 243.405 239.62 247.468 238.882 251.555 236.063 C 268.021 224.707 286.272 216.845 303.247 206.399 C 334.743 189.182 358.997 174.438 380.49 152.945 L 382.84 150.889 C 393.673 141.862 404.947 129.549 417.203 122.4 C 420.655 120.386 424.622 118.756 427.776 116.232" style="fill: none;"/>
    <path id="path-9" d="M 124.383 253.097 C 153.92 246.007 182.483 226.545 204.857 210.511 C 253.934 177.635 289.159 148.388 329.974 127.98 L 334.379 125.925 C 345.262 122.139 353.279 116.849 362.574 110.652" style="fill: none;"/>
    <path id="path-10" d="M 283.275 250.16 C 301.095 241.847 318.26 232.732 332.617 221.965 C 348.794 211.083 359.161 203.128 368.448 194.357 C 371.551 191.427 372.872 187.794 376.378 184.958 C 381.236 181.029 387.5 178.761 391.651 174.092 C 412.079 162.517 430.847 158.828 446.279 148.54 C 455.585 140.801 455.124 134.861 457.44 123.281 C 457.44 109.857 452.833 103.565 449.216 96.848 C 446.748 92.264 448.629 85.876 448.629 80.988 C 452.898 65.855 456.028 57.22 462.433 46.331 C 463.947 43.757 464.45 38.108 468.013 38.108 C 474.714 38.108 475.198 57.243 475.356 60.723 C 475.943 96.399 476.117 126.817 470.069 157.057 L 468.894 162.931 C 467.124 171.151 465.714 179.814 463.02 187.896" style="fill: none;"/>
    <path id="path-11" d="M 84.145 292.16 C 108.682 290.104 124.508 287.66 140.242 286.873 C 183.025 286.873 219.636 286.579 256.255 286.579 C 318.994 285.992 354.144 287.823 385.189 277.474 L 386.952 276.887 C 388.314 276.887 389.008 278.189 389.008 279.53" style="fill: none;"/>
    <path id="path-12" d="M 190.172 300.971 C 245.583 300.971 290.422 300.971 335.26 300.971 L 342.603 300.971 C 351.753 300.971 360.148 300.549 369.036 298.327" style="fill: none;"/>
    <path id="path-13" d="M 113.809 265.726 C 116.262 259.939 122.307 259.218 126.145 256.915 C 159.164 247.706 180.623 227.777 199.864 206.399 C 234.975 173.75 261.785 145.765 298.548 134.736 L 299.722 134.148 C 300.478 133.77 301.45 133.346 302.072 132.973" style="fill: none;"/>
    <path id="path-14" d="M 222.773 239 C 233.862 226.736 241.688 216.18 248.618 205.518 C 259.484 189.806 269.377 183 282.1 175.266 C 285.33 173.303 287.696 169.915 291.205 168.511 C 306.079 155.477 315.922 141.757 330.561 132.973 L 332.617 131.211 C 334.834 129.272 337.52 127.144 339.959 125.925" style="fill: none;"/>
    <path id="path-15" d="M 270.94 255.447 C 270.94 241.764 274.967 235.937 281.513 226.37 C 291.467 216.619 298.059 210.38 308.24 206.986 C 320.687 203.634 330.257 201.263 339.078 197.588 C 345.055 195.098 350.336 190.009 356.113 187.602 C 370.343 178.524 373.145 164.865 377.26 152.064 C 378.391 144.485 379.315 138.044 379.315 131.211 C 379.022 126.798 378.434 123.099 378.434 119.463 C 378.434 115.57 379.611 112.705 380.784 110.358 L 381.078 109.771 C 381.097 109.693 381.625 107.715 381.665 107.715" style="fill: none;"/>
    <path id="path-16" d="M 169.025 239.587 C 172.721 234.129 172.288 228.982 175.487 225.783 C 178.364 221.653 180.309 217.73 183.71 214.329 C 186.834 210.324 188.826 206.741 190.465 203.462 C 194.114 196.102 199.781 192.544 204.857 188.483 C 209.692 186.341 218.475 183.97 220.717 181.728 C 232.661 181.434 241.08 181.434 249.499 181.434 C 256.345 181.434 262.089 180.553 268.296 180.553 C 273.662 180.553 278.084 180.823 282.688 179.672 C 286.32 178.769 290.937 175.56 293.848 175.56 C 296.519 175.266 303.456 171.324 304.715 168.805 C 312.69 165.657 314.182 151.996 319.694 146.484 C 319.988 143.059 324.398 131.794 326.155 130.036 C 327.33 124.219 332.03 119.384 332.03 114.176 C 333.538 111.17 336.729 109.869 336.729 107.421 C 337.022 103.558 341.529 99.046 343.19 96.554 C 348.484 92.292 350.596 89.18 353.47 87.743 C 363.207 87.156 371.284 86.09 377.26 88.331 C 388.78 91.376 397.089 95.487 405.749 99.198 L 406.63 99.491 C 407.292 99.822 409.774 101.168 410.154 101.547" style="fill: none;"/>
    <path id="path-17" d="M 200.158 284.523 C 201.304 275.88 206.054 270.086 208.381 265.433 C 212.712 256.209 218.637 249.326 222.479 241.643 C 227.348 236.387 232.09 229.935 236.87 227.545 C 247.408 222.13 256.855 218.928 265.066 217.559 C 274.07 217.266 281.898 216.972 289.736 216.972 C 299.378 216.972 307.71 217.559 316.17 217.559 C 326.008 217.559 336.288 219.175 342.309 213.154 C 345.846 211.385 355.619 202.287 358.169 202.287 C 364.111 199.022 367.448 194.727 370.798 190.539 C 372.56 182.447 377.847 177.618 377.847 172.917 C 379.903 163.64 384.466 156.878 386.071 152.064 C 387.118 148.04 389.301 142.887 389.301 139.728 C 389.595 133.837 393.23 123.262 396.35 118.582 C 398.606 114.657 401.911 111.098 404.867 110.358 C 410.727 109.771 413.912 108.302 416.909 108.302 C 422.802 106.436 426.442 105.953 429.832 105.953 L 430.126 105.953 C 430.615 105.953 431.105 105.953 431.594 105.953" style="fill: none;"/>
    <path id="path-18" d="M 241.276 299.502 C 256.029 293.116 263.168 281.725 272.408 275.125 C 287.683 262.553 302.444 253.686 316.463 243.405 C 327.125 235.053 331.519 228.779 337.022 223.14 C 357.107 202.559 375.078 182.21 391.064 158.232 L 393.707 155.295 C 394.771 153.592 395.983 151.275 397.231 149.714" style="fill: none;"/>
    <path id="path-19" d="M 303.54 302.145 C 327.013 278.19 351.274 263.535 372.267 245.167 C 396.675 220.759 414.172 205.946 431.301 190.833 C 444.915 178.82 462.123 169.564 472.419 154.12 L 474.768 151.183 C 476.827 148.61 477.116 147.001 479.174 144.428" style="fill: none;"/>
  </defs>
  <path d="M 297.972 91.754 L 410.086 309.072 L -21.122 309.072 L 297.972 91.754 Z" style="stroke: rgb(255, 234, 221); paint-order: stroke; fill: rgb(255, 234, 221);" bx:shape="triangle -21.122 91.754 431.208 217.318 0.74 0 1@cfc86062"/>
  <path d="M 2.474 -301.078 L 2.474 5.297 L -515.51 5.297 L 2.474 -301.078 Z" style="fill: rgb(48, 56, 72); paint-order: fill; stroke: rgb(48, 56, 72);" transform="matrix(-1, 0, 0, -1, 0, 0)" bx:shape="triangle -515.51 -301.078 517.984 306.375 1 0 1@0ac5b860"/>
  <text style="white-space: pre; fill: rgb(51, 51, 51); font-family: Arial, sans-serif; font-size: 10.3px;" x="265.947" y="162.05"> </text>
  <text style="fill: rgb(51, 51, 51); font-family: Arial, sans-serif; font-size: 28px; white-space: pre;"><textPath xlink:href="#path-15"> </textPath></text>
  <text style="fill: rgb(255, 234, 221); font-family: Arial, sans-serif; font-size: 25.4316px; letter-spacing: 0.3px; word-spacing: 6.7px; white-space: pre;" transform="matrix(0.787398, -0.460563, 0.314931, 1.085797, -142.433716, 167.051147)" x="382.252" y="162.637">BETHANY ALLEN</text>
</svg>